<svg width="18" height="24" viewBox="0 0 18 24" fill="none" xmlns="http://www.w3.org/2000/svg">
<path d="M17.9487 14.0517C17.6738 10.4724 16.0073 8.22938 14.5371 6.25004C13.1758 4.4176 12 2.8352 12 0.500917C12 0.313417 11.895 0.142042 11.7285 0.0561205C11.5615 -0.0303169 11.3608 -0.0161607 11.209 0.094183C9.00098 1.67415 7.1587 4.33707 6.51515 6.87788C6.06839 8.6468 6.00928 10.6354 6.00098 11.9488C3.96192 11.5133 3.50001 8.46324 3.49514 8.43001C3.47217 8.2718 3.37551 8.13413 3.23489 8.05894C3.09281 7.98474 2.9258 7.97935 2.78175 8.05065C2.67483 8.1024 0.157219 9.38162 0.0107342 14.4892C0.000468575 14.6591 0 14.8295 0 14.9999C0 19.962 4.03758 23.9993 9 23.9993C9.00684 23.9998 9.01415 24.0007 9.02001 23.9993C9.02198 23.9993 9.0239 23.9993 9.02634 23.9993C13.9766 23.9851 18 19.9532 18 14.9999C18 14.7504 17.9487 14.0517 17.9487 14.0517ZM9 22.9994C7.34568 22.9994 6 21.5659 6 19.8038C6 19.7438 5.99953 19.6832 6.00389 19.609C6.0239 18.8659 6.16504 18.3586 6.31983 18.0212C6.60989 18.6442 7.12842 19.2169 7.97072 19.2169C8.24709 19.2169 8.47073 18.9933 8.47073 18.717C8.47073 18.0051 8.4854 17.1839 8.66264 16.4427C8.82037 15.7855 9.19729 15.0863 9.67486 14.5258C9.88725 15.2533 10.3013 15.8421 10.7056 16.4168C11.2843 17.239 11.8824 18.0891 11.9874 19.5387C11.9937 19.6246 12.0001 19.711 12.0001 19.8038C12 21.5658 10.6543 22.9994 9 22.9994Z" fill="#E23535"/>
</svg>
