<svg width="18" height="24" viewBox="0 0 18 24" fill="none" xmlns="http://www.w3.org/2000/svg">
<path d="M9.57278 23.9999C8.64423 24.0033 7.72234 23.8465 6.84957 23.5367C3.72079 22.4158 1.63365 20.6507 0.646744 18.2907C-0.973079 14.4163 0.950219 10.3786 1.03267 10.2089C1.06332 10.1457 1.113 10.0932 1.17504 10.0584C1.23708 10.0237 1.30852 10.0082 1.37978 10.0142C1.45105 10.0202 1.51873 10.0474 1.57376 10.092C1.62879 10.1367 1.66854 10.1967 1.68768 10.2641C1.96976 11.0477 2.46749 11.74 3.12612 12.2651C3.92919 8.32616 7.44494 5.94251 7.60107 5.83793C9.86959 4.06322 8.01681 0.53712 7.99787 0.501804C7.96046 0.431932 7.94885 0.351595 7.96498 0.274331C7.98111 0.197067 8.024 0.127598 8.08642 0.0776288C8.14884 0.0276594 8.22697 0.000243855 8.30766 1.61908e-06C8.38835 -0.000240617 8.46665 0.0267052 8.52939 0.0762989C14.7768 5.03081 14.4175 10.021 13.9134 12.0714C14.3826 11.7123 14.7472 11.2391 14.9706 10.6991C15.1939 10.1592 15.2683 9.57131 15.1862 8.99442C15.1752 8.91772 15.1911 8.83965 15.2313 8.77291C15.2715 8.70616 15.3336 8.65469 15.4076 8.62686C15.4815 8.59903 15.5629 8.59649 15.6386 8.61965C15.7142 8.64281 15.7796 8.69031 15.824 8.75441C16.502 9.78709 17.0525 10.8946 17.4638 12.0539C18.0064 13.5722 18.14 15.2015 17.8517 16.7849C17.5634 18.3683 16.8629 19.8525 15.8177 21.0947L15.7426 21.1842C14.9911 22.0701 14.048 22.7821 12.9812 23.269C11.9143 23.7559 10.7502 24.0055 9.57278 23.9999ZM7.09095 22.8928C7.8864 23.1749 8.72657 23.3175 9.57278 23.3142C10.6465 23.3194 11.7081 23.092 12.6811 22.6483C13.6542 22.2046 14.5145 21.5556 15.2002 20.7481L15.2704 20.6624C16.2399 19.511 16.8898 18.1352 17.1577 16.6673C17.4256 15.1994 17.3024 13.6888 16.8001 12.2809C16.5394 11.5563 16.2242 10.8516 15.857 10.1725C15.4711 12.2356 13.4513 13.195 13.4267 13.2063C13.3614 13.2365 13.288 13.2463 13.2168 13.2342C13.1455 13.2221 13.0798 13.1889 13.0287 13.1389C12.9775 13.0889 12.9434 13.0248 12.931 12.9551C12.9186 12.8855 12.9285 12.8138 12.9594 12.7499C13.0703 12.5174 15.4855 7.22965 9.12827 1.48962C9.53384 2.86351 9.77627 5.0123 8.01576 6.38859C7.95717 6.42905 4.23126 8.96219 3.72255 12.9375C3.71493 12.9956 3.69218 13.0509 3.65648 13.098C3.62079 13.1451 3.57333 13.1824 3.51864 13.2065C3.46396 13.2306 3.40387 13.2406 3.34412 13.2355C3.28437 13.2304 3.22695 13.2104 3.17734 13.1775C2.44403 12.6693 1.82633 12.0182 1.36316 11.2653C0.902505 12.5822 0.191004 15.3938 1.2979 18.0339C2.20798 20.206 4.15688 21.8398 7.0906 22.8911L7.09095 22.8928Z" fill="#E23535"/>
<path d="M8.07787 23.86C7.99519 23.86 7.91517 23.8315 7.85193 23.7795C3.38119 20.0963 6.53102 15.3863 6.5633 15.3393C6.60411 15.2797 6.66302 15.2341 6.73172 15.209C6.80043 15.1838 6.87547 15.1803 6.9463 15.199C7.01714 15.2177 7.08019 15.2577 7.12659 15.3132C7.17299 15.3687 7.2004 15.4371 7.20498 15.5087C7.21384 16.0348 7.40702 16.542 7.75229 16.9457C7.57031 15.6524 7.76374 14.3351 8.31053 13.144C8.85732 11.953 9.73548 10.9359 10.8449 10.2089C10.9105 10.1716 10.9867 10.1561 11.0621 10.1647C11.1375 10.1733 11.2079 10.2056 11.263 10.2566C11.318 10.3077 11.3546 10.3748 11.3673 10.4479C11.3799 10.5211 11.368 10.5962 11.3333 10.6622C11.1397 11.0193 11.0424 11.4187 11.0505 11.8228C11.0687 12.293 11.2213 12.7487 11.4912 13.1384L11.6315 13.3479C12.0964 14.0224 12.6001 14.6705 13.1401 15.2892C13.5604 15.7862 13.8967 16.3456 14.1361 16.9463C15.8946 20.4892 12.8731 23.2819 12.8437 23.3101C12.7751 23.37 12.6853 23.4013 12.5934 23.3971C12.5015 23.393 12.415 23.3537 12.3524 23.2878C12.2899 23.2219 12.2563 23.1346 12.2589 23.0448C12.2616 22.9549 12.3002 22.8697 12.3665 22.8074C12.4763 22.7073 15.0417 20.3182 13.4973 17.2306C13.4912 17.2184 13.486 17.206 13.4815 17.1932C13.2689 16.6621 12.9714 16.1674 12.6002 15.7274C12.0428 15.0888 11.5231 14.4197 11.0435 13.7233L10.9032 13.5138C10.5614 13.0167 10.3691 12.4358 10.3481 11.8372C10.3454 11.7036 10.3514 11.5699 10.3664 11.4371C9.35597 12.3707 7.87543 14.3583 8.5736 17.6088C8.58616 17.6671 8.58297 17.7275 8.56434 17.7843C8.54571 17.841 8.51227 17.892 8.46734 17.9322C8.4224 17.9725 8.36751 18.0006 8.30808 18.0138C8.24864 18.027 8.18671 18.0248 8.12839 18.0075C7.79356 17.8823 7.49176 17.6852 7.24523 17.4308C6.99871 17.1764 6.81375 16.8712 6.70398 16.5376C6.08159 17.9228 5.33571 20.8102 8.30346 23.2559C8.35852 23.3012 8.39799 23.362 8.41652 23.4299C8.43505 23.4979 8.43173 23.5698 8.40703 23.6359C8.38232 23.7019 8.33742 23.759 8.27841 23.7993C8.2194 23.8396 8.14914 23.8611 8.07716 23.8611L8.07787 23.86Z" fill="#E23535"/>
</svg>
